0
SECTION
2
HEADER
9
$INSUNITS
70
4
9
$ACADVER
1
AC1014
9
$HANDSEED
5
FFFF
0
ENDSEC
0
SECTION
2
TABLES
0
TABLE
2
VPORT
5
8
100
AcDbSymbolTable
0
ENDTAB
0
TABLE
2
LTYPE
5
5
100
AcDbSymbolTable
0
LTYPE
5
14
100
AcDbSymbolTableRecord
100
AcDbLinetypeTableRecord
2
BYBLOCK
70
0
0
LTYPE
5
15
100
AcDbSymbolTableRecord
100
AcDbLinetypeTableRecord
2
BYLAYER
70
0
0
ENDTAB
0
TABLE
2
LAYER
5
2
100
AcDbSymbolTable
70
2
0
LAYER
5
50
100
AcDbSymbolTableRecord
100
AcDbLayerTableRecord
2
0
70
0
6
CONTINUOUS
0
ENDTAB
0
TABLE
2
STYLE
5
3
100
AcDbSymbolTable
70
1
0
STYLE
5
11
100
AcDbSymbolTableRecord
100
AcDbTextStyleTableRecord
2
STANDARD
70
0
0
ENDTAB
0
TABLE
2
VIEW
5
6
100
AcDbSymbolTable
70
0
0
ENDTAB
0
TABLE
2
UCS
5
7
100
AcDbSymbolTable
70
0
0
ENDTAB
0
TABLE
2
APPID
5
9
100
AcDbSymbolTable
70
2
0
APPID
5
12
100
AcDbSymbolTableRecord
100
AcDbRegAppTableRecord
2
ACAD
70
0
0
ENDTAB
0
TABLE
2
DIMSTYLE
5
A
100
AcDbSymbolTable
70
1
0
ENDTAB
0
TABLE
2
BLOCK_RECORD
5
1
100
AcDbSymbolTable
70
1
0
BLOCK_RECORD
5
1F
100
AcDbSymbolTableRecord
100
AcDbBlockTableRecord
2
*MODEL_SPACE
0
BLOCK_RECORD
5
1B
100
AcDbSymbolTableRecord
100
AcDbBlockTableRecord
2
*PAPER_SPACE
0
ENDTAB
0
ENDSEC
0
SECTION
2
BLOCKS
0
BLOCK
5
20
100
AcDbEntity
100
AcDbBlockBegin
2
*MODEL_SPACE
0
ENDBLK
5
21
100
AcDbEntity
100
AcDbBlockEnd
0
BLOCK
5
1C
100
AcDbEntity
100
AcDbBlockBegin
2
*PAPER_SPACE
0
ENDBLK
5
1D
100
AcDbEntity
100
AcDbBlockEnd
0
ENDSEC
0
SECTION
2
ENTITIES
0
LINE
5
100
100
AcDbEntity
8
0
100
AcDbLine
10
-150.15375557415916
20
-8.5414685402216417
30
0
11
-177.88227971303695
21
-9.4601847014495188
31
0
0
LINE
5
101
100
AcDbEntity
8
0
100
AcDbLine
10
-150.15375557415916
20
-8.5414685402216417
30
0
11
-150.62375810810582
21
-10.329999960436126
31
0
0
LINE
5
102
100
AcDbEntity
8
0
100
AcDbLine
10
-150.62375810810582
20
-10.329999960436126
30
0
11
-153.84938718867778
21
-11.90146028174043
31
0
0
LINE
5
103
100
AcDbEntity
8
0
100
AcDbLine
10
-153.84938718867778
20
-11.90146028174043
30
0
11
-156.66147407943288
21
-12.480419347484123
31
0
0
LINE
5
104
100
AcDbEntity
8
0
100
AcDbLine
10
-156.66147407943288
20
-12.480419347484123
30
0
11
-159.43220675120625
21
-12.811253099337661
31
0
0
LINE
5
105
100
AcDbEntity
8
0
100
AcDbLine
10
-159.43220675120625
20
-12.811253099337661
30
0
11
-162.69919005075991
21
-12.935315756282737
31
0
0
LINE
5
106
100
AcDbEntity
8
0
100
AcDbLine
10
-162.69919005075991
20
-12.935315756282737
30
0
11
-166.66919507300236
21
-12.893961537301045
31
0
0
LINE
5
107
100
AcDbEntity
8
0
100
AcDbLine
10
-166.66919507300236
20
-12.893961537301045
30
0
11
-169.89482415357435
21
-12.397710909520736
31
0
0
LINE
5
108
100
AcDbEntity
8
0
100
AcDbLine
10
-169.89482415357435
20
-12.397710909520736
30
0
11
-174.31972558461541
21
-11.818751843777049
31
0
0
LINE
5
109
100
AcDbEntity
8
0
100
AcDbLine
10
-174.31972558461541
20
-11.818751843777049
30
0
11
-176.88368716148034
21
-11.157084340069972
31
0
0
SPLINE
5
110
100
AcDbEntity
8
0
100
AcDbSpline
70
1064
71
5
72
16
73
10
74
0
42
0.000000001
43
0.0000000001
44
0.0000000001
40
0
40
0
40
0
40
0
40
0
40
0
40
0.20000000000000001
40
0.40000000000000002
40
0.60000000000000009
40
0.80000000000000004
40
1
40
1
40
1
40
1
40
1
40
1
10
-150.15375557415916
20
-8.5414685402216417
30
0
10
-150.62375810810582
20
-10.329999960436126
30
0
10
-153.84938718867778
20
-11.90146028174043
30
0
10
-156.66147407943288
20
-12.480419347484123
30
0
10
-159.43220675120625
20
-12.811253099337661
30
0
10
-162.69919005075991
20
-12.935315756282737
30
0
10
-166.66919507300236
20
-12.893961537301045
30
0
10
-169.89482415357435
20
-12.397710909520736
30
0
10
-174.31972558461541
20
-11.818751843777049
30
0
10
-176.88368716148034
20
-11.157084340069972
30
0
0
LINE
5
111
100
AcDbEntity
8
0
100
AcDbLine
10
-176.44938285861014
20
-11.269162869842928
30
0
11
-176.51082441727033
21
-9.4147449175536373
31
0
0
SPLINE
5
112
100
AcDbEntity
8
0
100
AcDbSpline
70
1064
71
5
72
16
73
10
74
0
42
0.000000001
43
0.0000000001
44
0.0000000001
40
0
40
0
40
0
40
0
40
0
40
0
40
0.20000000000000001
40
0.40000000000000002
40
0.60000000000000009
40
0.80000000000000004
40
1
40
1
40
1
40
1
40
1
40
1
10
-150.15375557415916
20
-8.5414685402216435
30
0
10
-150.74111451646169
20
-6.7879701809672222
30
0
10
-154.06368812509845
20
-5.4334683824981482
30
0
10
-156.9079304555076
20
-5.041917815046042
30
0
10
-159.69448525258773
20
-4.8952110576424683
30
0
10
-162.96251566517626
20
-4.9876699393527062
30
0
10
-166.92107664889565
20
-5.2917176103391528
30
0
10
-170.10678351438943
20
-6.0003920194650178
30
0
10
-174.48365791056256
20
-6.8709761879176057
30
0
10
-176.99819905017452
20
-7.7009073358453044
30
0
0
LINE
5
113
100
AcDbEntity
8
0
100
AcDbLine
10
-150.15375557415916
20
-8.5414685402216417
30
0
11
-150.74111451646169
21
-6.7879701809672195
31
0
0
LINE
5
114
100
AcDbEntity
8
0
100
AcDbLine
10
-150.74111451646169
20
-6.7879701809672195
30
0
11
-154.06368812509845
21
-5.4334683824981456
31
0
0
LINE
5
115
100
AcDbEntity
8
0
100
AcDbLine
10
-154.06368812509845
20
-5.4334683824981456
30
0
11
-156.90793045550762
21
-5.0419178150460393
31
0
0
LINE
5
116
100
AcDbEntity
8
0
100
AcDbLine
10
-156.90793045550762
20
-5.0419178150460393
30
0
11
-159.69448525258773
21
-4.8952110576424648
31
0
0
LINE
5
117
100
AcDbEntity
8
0
100
AcDbLine
10
-159.69448525258773
20
-4.8952110576424648
30
0
11
-162.96251566517626
21
-4.9876699393527009
31
0
0
LINE
5
118
100
AcDbEntity
8
0
100
AcDbLine
10
-162.96251566517626
20
-4.9876699393527009
30
0
11
-166.92107664889565
21
-5.2917176103391528
31
0
0
LINE
5
119
100
AcDbEntity
8
0
100
AcDbLine
10
-166.92107664889565
20
-5.2917176103391528
30
0
11
-170.10678351438946
21
-6.000392019465016
31
0
0
LINE
5
120
100
AcDbEntity
8
0
100
AcDbLine
10
-170.10678351438946
20
-6.000392019465016
30
0
11
-174.48365791056258
21
-6.8709761879176057
31
0
0
LINE
5
121
100
AcDbEntity
8
0
100
AcDbLine
10
-174.48365791056258
20
-6.8709761879176057
30
0
11
-176.99819905017452
21
-7.7009073358453026
31
0
0
LINE
5
122
100
AcDbEntity
8
0
100
AcDbLine
10
-176.57226597593052
20
-7.5603269652643448
30
0
11
-176.51082441727033
21
-9.4147449175536373
31
0
0
ENDSEC
0
SECTION
2
OBJECTS
0
DICTIONARY
5
C
100
AcDbDictionary
3
ACAD_GROUP
350
D
3
ACAD_MLINESTYLE
350
17
0
DICTIONARY
5
D
100
AcDbDictionary
0
DICTIONARY
5
1A
330
C
100
AcDbDictionary
0
DICTIONARY
5
17
100
AcDbDictionary
0
ENDSEC
0
EOF
