0
SECTION
2
HEADER
9
$INSUNITS
70
4
9
$ACADVER
1
AC1014
9
$HANDSEED
5
FFFF
0
ENDSEC
0
SECTION
2
TABLES
0
TABLE
2
VPORT
5
8
100
AcDbSymbolTable
0
ENDTAB
0
TABLE
2
LTYPE
5
5
100
AcDbSymbolTable
0
LTYPE
5
14
100
AcDbSymbolTableRecord
100
AcDbLinetypeTableRecord
2
BYBLOCK
70
0
0
LTYPE
5
15
100
AcDbSymbolTableRecord
100
AcDbLinetypeTableRecord
2
BYLAYER
70
0
0
ENDTAB
0
TABLE
2
LAYER
5
2
100
AcDbSymbolTable
70
2
0
LAYER
5
50
100
AcDbSymbolTableRecord
100
AcDbLayerTableRecord
2
0
70
0
6
CONTINUOUS
0
ENDTAB
0
TABLE
2
STYLE
5
3
100
AcDbSymbolTable
70
1
0
STYLE
5
11
100
AcDbSymbolTableRecord
100
AcDbTextStyleTableRecord
2
STANDARD
70
0
0
ENDTAB
0
TABLE
2
VIEW
5
6
100
AcDbSymbolTable
70
0
0
ENDTAB
0
TABLE
2
UCS
5
7
100
AcDbSymbolTable
70
0
0
ENDTAB
0
TABLE
2
APPID
5
9
100
AcDbSymbolTable
70
2
0
APPID
5
12
100
AcDbSymbolTableRecord
100
AcDbRegAppTableRecord
2
ACAD
70
0
0
ENDTAB
0
TABLE
2
DIMSTYLE
5
A
100
AcDbSymbolTable
70
1
0
ENDTAB
0
TABLE
2
BLOCK_RECORD
5
1
100
AcDbSymbolTable
70
1
0
BLOCK_RECORD
5
1F
100
AcDbSymbolTableRecord
100
AcDbBlockTableRecord
2
*MODEL_SPACE
0
BLOCK_RECORD
5
1B
100
AcDbSymbolTableRecord
100
AcDbBlockTableRecord
2
*PAPER_SPACE
0
ENDTAB
0
ENDSEC
0
SECTION
2
BLOCKS
0
BLOCK
5
20
100
AcDbEntity
100
AcDbBlockBegin
2
*MODEL_SPACE
0
ENDBLK
5
21
100
AcDbEntity
100
AcDbBlockEnd
0
BLOCK
5
1C
100
AcDbEntity
100
AcDbBlockBegin
2
*PAPER_SPACE
0
ENDBLK
5
1D
100
AcDbEntity
100
AcDbBlockEnd
0
ENDSEC
0
SECTION
2
ENTITIES
0
SPLINE
5
100
100
AcDbEntity
8
0
100
AcDbSpline
70
1064
71
2
72
6
73
3
74
0
42
0.000000001
43
0.0000000001
44
0.0000000001
40
0
40
0
40
0
40
8.2080045805182973
40
8.2080045805182973
40
8.2080045805182973
10
75.249565699166155
20
2.7772858850578586
30
0
10
32.013159944636982
20
24.887232030370793
30
1.3877787807814457e-16
10
0.24956569916626312
20
2.7772858850578626
30
0
0
LINE
5
101
100
AcDbEntity
8
0
100
AcDbLine
10
0.24956569916627175
20
2.7772858850578568
30
-6.7703758854636034e-33
11
0.24956569916626314
21
0.17362711105892992
31
0
0
SPLINE
5
102
100
AcDbEntity
8
0
100
AcDbSpline
70
1064
71
2
72
6
73
3
74
0
42
0.000000001
43
0.0000000001
44
0.0000000001
40
-8.1971910291672376
40
-8.1971910291672376
40
-8.1971910291672376
40
0
40
0
40
0
10
0.24956569916628069
20
0.17362711105893014
30
0
10
31.78259805598417
20
22.10022810285141
30
0
10
75
20
0
30
0
0
LINE
5
103
100
AcDbEntity
8
0
100
AcDbLine
10
74.999999999999943
20
1.0342710294652957e-14
30
0
11
76.14417511848842
21
9.8293872894122882e-15
31
0
0
LINE
5
104
100
AcDbEntity
8
0
100
AcDbLine
10
76.14417511848842
20
9.8293872894122882e-15
30
0
11
84.92421824112256
21
15.047977497896103
31
0
0
LINE
5
105
100
AcDbEntity
8
0
100
AcDbLine
10
84.92421824112256
20
15.047977497896103
30
0
11
93.7042613637567
21
2.2204460492503131e-15
31
0
0
LINE
5
106
100
AcDbEntity
8
0
100
AcDbLine
10
93.7042613637567
20
2.2204460492503131e-15
30
0
11
94.598905175867216
21
1.5498526789466045e-15
31
0
0
LINE
5
107
100
AcDbEntity
8
0
100
AcDbLine
10
94.598905175867216
20
1.5498526789466045e-15
30
0
11
94.598905175867216
21
2.7772858850578586
31
0
0
LINE
5
108
100
AcDbEntity
8
0
100
AcDbLine
10
94.598905175867216
20
2.7772858850578586
30
0
11
84.924235437516685
21
19.358549836595003
31
0
0
LINE
5
109
100
AcDbEntity
8
0
100
AcDbLine
10
84.924235437516685
20
19.358549836595003
30
0
11
75.249565699166155
21
2.7772858850578586
31
0
0
LINE
5
110
100
AcDbEntity
8
0
100
AcDbLine
10
84.92421824112256
20
15.047977497896103
30
0
11
84.924235437516685
21
19.358549836595003
31
0
0
LINE
5
111
100
AcDbEntity
8
0
100
AcDbLine
10
86.490125303176697
20
15.047971250940268
30
0
11
87.457920973165756
21
18.026499620667611
31
0
0
LINE
5
112
100
AcDbEntity
8
0
100
AcDbLine
10
87.457920973165756
20
18.026499620667611
30
0
11
84.924237467275688
21
19.867343883526594
31
0
0
LINE
5
113
100
AcDbEntity
8
0
100
AcDbLine
10
84.924237467275688
20
19.867343883526594
30
0
11
82.390539273911571
21
18.026519836241349
31
0
0
LINE
5
114
100
AcDbEntity
8
0
100
AcDbLine
10
82.390539273911571
20
18.026519836241349
30
0
11
83.358311179068423
21
15.047983744851937
31
0
0
LINE
5
115
100
AcDbEntity
8
0
100
AcDbLine
10
83.358311179068423
20
15.047983744851937
30
0
11
86.490125303176697
21
15.047971250940268
31
0
0
LINE
5
116
100
AcDbEntity
8
0
100
AcDbLine
10
84.92421824112256
20
15.047977497896103
30
0
11
84.92421824112256
21
12.547977497896103
31
0
0
LINE
5
117
100
AcDbEntity
8
0
100
AcDbLine
10
82.874425226490004
20
16.537251790546641
30
0
11
80.496780853826451
21
15.764718789865528
31
0
0
LINE
5
118
100
AcDbEntity
8
0
100
AcDbLine
10
86.974023138171219
20
16.53723543580394
30
0
11
89.351661346945605
21
15.7646834646226
31
0
0
LINE
5
119
100
AcDbEntity
8
0
100
AcDbLine
10
86.191079220220729
20
18.946921752097104
30
0
11
87.660550419575884
21
20.969458375811417
31
0
0
LINE
5
120
100
AcDbEntity
8
0
100
AcDbLine
10
83.657388370593651
20
18.946931859883975
30
0
11
82.187933308509827
21
20.969480208012211
31
0
0
LINE
5
121
100
AcDbEntity
8
0
100
AcDbLine
10
87.457920973165756
20
18.026499620667611
30
0
11
89.351661346945605
21
15.7646834646226
31
0
0
LINE
5
122
100
AcDbEntity
8
0
100
AcDbLine
10
89.351661346945605
20
15.7646834646226
30
0
11
86.490125303176697
21
15.047971250940268
31
0
0
LINE
5
123
100
AcDbEntity
8
0
100
AcDbLine
10
86.490125303176697
20
15.047971250940268
30
0
11
84.92421824112256
21
12.547977497896103
31
0
0
LINE
5
124
100
AcDbEntity
8
0
100
AcDbLine
10
84.92421824112256
20
12.547977497896103
30
0
11
83.358311179068423
21
15.047983744851937
31
0
0
LINE
5
125
100
AcDbEntity
8
0
100
AcDbLine
10
83.358311179068423
20
15.047983744851937
30
0
11
80.496780853826451
21
15.764718789865528
31
0
0
LINE
5
126
100
AcDbEntity
8
0
100
AcDbLine
10
80.496780853826451
20
15.764718789865528
30
0
11
82.390539273911571
21
18.026519836241349
31
0
0
LINE
5
127
100
AcDbEntity
8
0
100
AcDbLine
10
82.390539273911571
20
18.026519836241349
30
0
11
82.187933308509827
21
20.969480208012211
31
0
0
LINE
5
128
100
AcDbEntity
8
0
100
AcDbLine
10
82.187933308509827
20
20.969480208012211
30
0
11
84.924237467275688
21
19.867343883526594
31
0
0
LINE
5
129
100
AcDbEntity
8
0
100
AcDbLine
10
87.457920973165756
20
18.026499620667611
30
0
11
87.660550419575884
21
20.969458375811417
31
0
0
LINE
5
130
100
AcDbEntity
8
0
100
AcDbLine
10
87.660550419575884
20
20.969458375811417
30
0
11
84.924237467275688
21
19.867343883526594
31
0
0
ENDSEC
0
SECTION
2
OBJECTS
0
DICTIONARY
5
C
100
AcDbDictionary
3
ACAD_GROUP
350
D
3
ACAD_MLINESTYLE
350
17
0
DICTIONARY
5
D
100
AcDbDictionary
0
DICTIONARY
5
1A
330
C
100
AcDbDictionary
0
DICTIONARY
5
17
100
AcDbDictionary
0
ENDSEC
0
EOF
