0
SECTION
2
HEADER
9
$INSUNITS
70
4
9
$ACADVER
1
AC1014
9
$HANDSEED
5
FFFF
0
ENDSEC
0
SECTION
2
TABLES
0
TABLE
2
VPORT
5
8
100
AcDbSymbolTable
0
ENDTAB
0
TABLE
2
LTYPE
5
5
100
AcDbSymbolTable
0
LTYPE
5
14
100
AcDbSymbolTableRecord
100
AcDbLinetypeTableRecord
2
BYBLOCK
70
0
0
LTYPE
5
15
100
AcDbSymbolTableRecord
100
AcDbLinetypeTableRecord
2
BYLAYER
70
0
0
ENDTAB
0
TABLE
2
LAYER
5
2
100
AcDbSymbolTable
70
2
0
LAYER
5
50
100
AcDbSymbolTableRecord
100
AcDbLayerTableRecord
2
0
70
0
6
CONTINUOUS
0
ENDTAB
0
TABLE
2
STYLE
5
3
100
AcDbSymbolTable
70
1
0
STYLE
5
11
100
AcDbSymbolTableRecord
100
AcDbTextStyleTableRecord
2
STANDARD
70
0
0
ENDTAB
0
TABLE
2
VIEW
5
6
100
AcDbSymbolTable
70
0
0
ENDTAB
0
TABLE
2
UCS
5
7
100
AcDbSymbolTable
70
0
0
ENDTAB
0
TABLE
2
APPID
5
9
100
AcDbSymbolTable
70
2
0
APPID
5
12
100
AcDbSymbolTableRecord
100
AcDbRegAppTableRecord
2
ACAD
70
0
0
ENDTAB
0
TABLE
2
DIMSTYLE
5
A
100
AcDbSymbolTable
70
1
0
ENDTAB
0
TABLE
2
BLOCK_RECORD
5
1
100
AcDbSymbolTable
70
1
0
BLOCK_RECORD
5
1F
100
AcDbSymbolTableRecord
100
AcDbBlockTableRecord
2
*MODEL_SPACE
0
BLOCK_RECORD
5
1B
100
AcDbSymbolTableRecord
100
AcDbBlockTableRecord
2
*PAPER_SPACE
0
ENDTAB
0
ENDSEC
0
SECTION
2
BLOCKS
0
BLOCK
5
20
100
AcDbEntity
100
AcDbBlockBegin
2
*MODEL_SPACE
0
ENDBLK
5
21
100
AcDbEntity
100
AcDbBlockEnd
0
BLOCK
5
1C
100
AcDbEntity
100
AcDbBlockBegin
2
*PAPER_SPACE
0
ENDBLK
5
1D
100
AcDbEntity
100
AcDbBlockEnd
0
ENDSEC
0
SECTION
2
ENTITIES
0
LWPOLYLINE
5
100
100
AcDbEntity
8
0
100
AcDbPolyline
90
30
70
1
43
0.0
10
59.999999999999964
20
114.00000000000009
42
-0.4142135623730957
10
64
20
110.00000000000011
10
64
20
106.00000000000017
10
63.99484345311501
20
83.985012860537182
42
0.41421356237309631
10
83.990158326008668
20
63.980328830694511
10
110.00093691569543
20
63.974236353853115
42
-0.41414495997294504
10
114.00000000000055
20
59.974236463579459
10
114.00000000000003
20
-60.000000000000057
42
-0.41421356237309176
10
110.00000000000001
20
-64.000000000000043
10
83.975169978463228
20
-64.000000000000043
42
0.41421356237309581
10
63.975169978463228
20
-84.000000000000128
10
63.975169978463313
20
-106.01498774336929
10
63.97423306276842
20
-110.01498763364293
42
-0.41421356237309309
10
59.973296256799877
20
-114.01405060822169
10
-59.975176668945849
20
-113.98595520573531
42
-0.41407636090009359
10
-63.974239643524569
20
-109.98689223115659
10
-63.980328830694532
20
-83.990158326008682
42
0.41421356237309553
10
-83.985012860537211
20
-63.994843453115031
10
-106.00000000000021
20
-64.000000000000028
10
-110.00000000000003
20
-64.000000000000014
42
-0.41421356237309176
10
-114.00000000000003
20
-60.000000000000036
10
-114.00000000000007
20
-55.999999999999979
10
-114.01311369252674
20
55.973296366526299
10
-114.01405060822165
20
59.973296256799919
42
-0.4142135623730957
10
-110.01498763364295
20
63.974233062768455
10
-106.01498774336935
20
63.97516997846337
10
-84.000000000000142
20
63.975169978463242
42
0.41421356237309631
10
-64.000000000000057
20
83.975169978463242
10
-64.000000000000014
20
109.99999999999909
42
-0.41421356237308526
10
-60.000000000000071
20
113.99999999999905
0
LWPOLYLINE
5
101
100
AcDbEntity
8
0
100
AcDbPolyline
90
24
70
1
43
0.0
10
-101.99953162445382
20
-55.999062974572354
10
-83.986886691875355
20
-55.994843892020718
42
-0.41421356237309304
10
-55.980329050095875
20
-83.988284714071824
10
-55.976112816761585
20
-101.98876540439366
42
0.41407636090009486
10
-51.977049842182844
20
-105.98782837897238
10
51.974233282221178
20
-106.01217677680611
42
0.41428216810125429
10
55.975170197916086
20
-102.01217688653252
10
55.975170197916185
20
-83.999999999999915
42
-0.41421356237309342
10
83.975170197916185
20
-56.00000000000005
10
102.00000000000001
20
-56.000000000000028
42
0.4142135623730957
10
106.00000000000003
20
-52.000000000000021
10
106.00000000000001
20
51.976110075567902
42
0.4141449599729457
10
102.00093691569491
20
55.976109965841523
10
83.988284714071824
20
55.980329050095854
42
-0.41421356237309304
10
55.994843892020697
20
83.986886691875327
10
55.999062864826655
20
101.99906308430512
42
0.41428216810125362
10
51.999062974553034
20
106
10
-52.000000000000064
20
106
42
0.41421356237309503
10
-56.000000000000071
20
102
10
-56.00000000000005
20
83.975170197916199
42
-0.41421356237309342
10
-83.999999999999929
20
55.975170197916185
10
-102.01264542669406
20
55.9751701979161
42
0.41424786482112869
10
-106.01264539926242
20
51.974701740065427
10
-106.00046851271711
20
-51.999531542149391
42
0.41424786482112763
0
ENDSEC
0
SECTION
2
OBJECTS
0
DICTIONARY
5
C
100
AcDbDictionary
3
ACAD_GROUP
350
D
3
ACAD_MLINESTYLE
350
17
0
DICTIONARY
5
D
100
AcDbDictionary
0
DICTIONARY
5
1A
330
C
100
AcDbDictionary
0
DICTIONARY
5
17
100
AcDbDictionary
0
ENDSEC
0
EOF
